<?xml version="1.0"?>
<!-- Created by MetaPost 1.999 on 2017.10.24:2027 -->
<svg version="1.1" xmlns="http://www.w3.org/2000/svg" xmlns:xlink="http://www.w3.org/1999/xlink" width="470.222321" height="248.767609" viewBox="0 0 470.222321 248.767609">
<!-- Original BoundingBox: -171.322449 -248.517609 298.899872 0.250000 -->
  <defs>
    <g transform="scale(0.009963,0.009963)" id="GLYPHptmr8r_32">
      <path style="fill-rule: evenodd;" d=""></path>
    </g>
    <g transform="scale(0.009963,0.009963)" id="GLYPHptmr8r_40">
      <path style="fill-rule: evenodd;" d="M295.000000 -676.000000C221.000000 -628.000000,191.000000 -602.000000,154.000000 -556.000000C83.000000 -469.000000,48.000000 -369.000000,48.000000 -252.000000C48.000000 -125.000000,85.000000 -27.000000,173.000000 75.000000C214.000000 123.000000,240.000000 145.000000,292.000000 177.000000L304.000000 161.000000C224.000000 98.000000,196.000000 63.000000,169.000000 -12.000000C145.000000 -79.000000,134.000000 -155.000000,134.000000 -255.000000C134.000000 -360.000000,147.000000 -442.000000,174.000000 -504.000000C202.000000 -566.000000,232.000000 -602.000000,304.000000 -660.000000"></path>
    </g>
    <g transform="scale(0.009963,0.009963)" id="GLYPHptmr8r_41">
      <path style="fill-rule: evenodd;" d="M38.000000 177.000000C112.000000 129.000000,142.000000 103.000000,179.000000 57.000000C250.000000 -30.000000,285.000000 -130.000000,285.000000 -247.000000C285.000000 -375.000000,248.000000 -472.000000,160.000000 -574.000000C119.000000 -622.000000,93.000000 -644.000000,41.000000 -676.000000L29.000000 -660.000000C109.000000 -597.000000,136.000000 -562.000000,164.000000 -487.000000C188.000000 -420.000000,199.000000 -344.000000,199.000000 -244.000000C199.000000 -140.000000,186.000000 -57.000000,159.000000 4.000000C131.000000 67.000000,101.000000 103.000000,29.000000 161.000000"></path>
    </g>
    <g transform="scale(0.009963,0.009963)" id="GLYPHptmr8r_44">
      <path style="fill-rule: evenodd;" d="M83.000000 141.000000C150.000000 108.000000,195.000000 47.000000,195.000000 -13.000000C195.000000 -63.000000,160.000000 -102.000000,115.000000 -102.000000C80.000000 -102.000000,56.000000 -79.000000,56.000000 -45.000000C56.000000 -13.000000,79.000000 6.000000,115.000000 6.000000C121.000000 6.000000,128.000000 5.000000,134.000000 4.000000C141.000000 2.000000,141.000000 2.000000,142.000000 2.000000C150.000000 2.000000,156.000000 8.000000,156.000000 16.000000C156.000000 48.000000,128.000000 85.000000,74.000000 122.000000"></path>
    </g>
    <g transform="scale(0.009963,0.009963)" id="GLYPHptmr8r_48">
      <path style="fill-rule: evenodd;" d="M254.000000 -676.000000C199.000000 -676.000000,157.000000 -659.000000,120.000000 -624.000000C62.000000 -568.000000,24.000000 -453.000000,24.000000 -336.000000C24.000000 -227.000000,57.000000 -110.000000,104.000000 -54.000000C141.000000 -10.000000,192.000000 14.000000,250.000000 14.000000C301.000000 14.000000,344.000000 -3.000000,380.000000 -38.000000C438.000000 -93.000000,476.000000 -209.000000,476.000000 -330.000000C476.000000 -535.000000,385.000000 -676.000000,254.000000 -676.000000M251.000000 -650.000000C335.000000 -650.000000,380.000000 -537.000000,380.000000 -328.000000C380.000000 -119.000000,336.000000 -12.000000,250.000000 -12.000000C164.000000 -12.000000,120.000000 -119.000000,120.000000 -327.000000C120.000000 -539.000000,165.000000 -650.000000,251.000000 -650.000000"></path>
    </g>
    <g transform="scale(0.009963,0.009963)" id="GLYPHptmr8r_58">
      <path style="fill-rule: evenodd;" d="M136.000000 -459.000000C106.000000 -459.000000,81.000000 -433.000000,81.000000 -402.000000C81.000000 -373.000000,106.000000 -348.000000,135.000000 -348.000000C166.000000 -348.000000,192.000000 -373.000000,192.000000 -402.000000C192.000000 -433.000000,166.000000 -459.000000,136.000000 -459.000000M136.000000 -100.000000C106.000000 -100.000000,81.000000 -74.000000,81.000000 -43.000000C81.000000 -14.000000,106.000000 11.000000,135.000000 11.000000C166.000000 11.000000,192.000000 -14.000000,192.000000 -43.000000C192.000000 -74.000000,166.000000 -100.000000,136.000000 -100.000000"></path>
    </g>
    <g transform="scale(0.009963,0.009963)" id="GLYPHptmr8r_68">
      <path style="fill-rule: evenodd;" d="M104.000000 -109.000000C104.000000 -37.000000,92.000000 -24.000000,16.000000 -19.000000L16.000000 -0.000000L300.000000 -0.000000C416.000000 -0.000000,521.000000 -33.000000,583.000000 -89.000000C648.000000 -148.000000,685.000000 -237.000000,685.000000 -334.000000C685.000000 -424.000000,655.000000 -502.000000,600.000000 -557.000000C532.000000 -626.000000,423.000000 -662.000000,286.000000 -662.000000L16.000000 -662.000000L16.000000 -643.000000C95.000000 -636.000000,104.000000 -627.000000,104.000000 -553.000000M206.000000 -586.000000C206.000000 -617.000000,217.000000 -625.000000,258.000000 -625.000000C344.000000 -625.000000,409.000000 -609.000000,457.000000 -575.000000C535.000000 -521.000000,576.000000 -435.000000,576.000000 -327.000000C576.000000 -209.000000,535.000000 -125.000000,454.000000 -78.000000C403.000000 -49.000000,345.000000 -37.000000,258.000000 -37.000000C218.000000 -37.000000,206.000000 -46.000000,206.000000 -78.000000"></path>
    </g>
    <g transform="scale(0.009963,0.009963)" id="GLYPHptmr8r_70">
      <path style="fill-rule: evenodd;" d="M479.000000 -231.000000L479.000000 -463.000000L456.000000 -463.000000C444.000000 -383.000000,426.000000 -368.000000,346.000000 -368.000000L201.000000 -368.000000L201.000000 -590.000000C201.000000 -618.000000,206.000000 -624.000000,233.000000 -624.000000L369.000000 -624.000000C482.000000 -624.000000,504.000000 -609.000000,521.000000 -519.000000L546.000000 -519.000000L543.000000 -662.000000L12.000000 -662.000000L12.000000 -643.000000C86.000000 -637.000000,99.000000 -623.000000,99.000000 -553.000000L99.000000 -120.000000C99.000000 -37.000000,88.000000 -24.000000,12.000000 -19.000000L12.000000 -0.000000L292.000000 -0.000000L292.000000 -19.000000C215.000000 -23.000000,201.000000 -37.000000,201.000000 -109.000000L201.000000 -327.000000L346.000000 -327.000000C427.000000 -327.000000,444.000000 -312.000000,456.000000 -231.000000"></path>
    </g>
    <g transform="scale(0.009963,0.009963)" id="GLYPHptmr8r_71">
      <path style="fill-rule: evenodd;" d="M709.000000 -354.000000L454.000000 -354.000000L454.000000 -336.000000C497.000000 -333.000000,509.000000 -330.000000,521.000000 -322.000000C536.000000 -313.000000,542.000000 -290.000000,542.000000 -247.000000L542.000000 -85.000000C542.000000 -53.000000,481.000000 -26.000000,409.000000 -26.000000C246.000000 -26.000000,146.000000 -140.000000,146.000000 -326.000000C146.000000 -420.000000,174.000000 -511.000000,218.000000 -560.000000C262.000000 -609.000000,324.000000 -636.000000,392.000000 -636.000000C448.000000 -636.000000,497.000000 -617.000000,536.000000 -581.000000C566.000000 -553.000000,582.000000 -526.000000,607.000000 -465.000000L630.000000 -465.000000L622.000000 -676.000000L600.000000 -676.000000C594.000000 -657.000000,576.000000 -643.000000,555.000000 -643.000000C545.000000 -643.000000,529.000000 -646.000000,511.000000 -653.000000C466.000000 -668.000000,420.000000 -676.000000,375.000000 -676.000000C175.000000 -676.000000,32.000000 -529.000000,32.000000 -325.000000C32.000000 -227.000000,59.000000 -152.000000,115.000000 -93.000000C182.000000 -24.000000,278.000000 14.000000,388.000000 14.000000C474.000000 14.000000,599.000000 -21.000000,639.000000 -56.000000L639.000000 -259.000000C639.000000 -318.000000,651.000000 -331.000000,709.000000 -336.000000"></path>
    </g>
    <g transform="scale(0.009963,0.009963)" id="GLYPHptmr8r_73">
      <path style="fill-rule: evenodd;" d="M115.000000 -109.000000C115.000000 -34.000000,102.000000 -22.000000,18.000000 -19.000000L18.000000 -0.000000L315.000000 -0.000000L315.000000 -19.000000C233.000000 -22.000000,217.000000 -36.000000,217.000000 -109.000000L217.000000 -553.000000C217.000000 -626.000000,231.000000 -639.000000,315.000000 -643.000000L315.000000 -662.000000L18.000000 -662.000000L18.000000 -643.000000C103.000000 -638.000000,115.000000 -627.000000,115.000000 -553.000000"></path>
    </g>
    <g transform="scale(0.009963,0.009963)" id="GLYPHptmr8r_76">
      <path style="fill-rule: evenodd;" d="M573.000000 -174.000000C556.000000 -136.000000,542.000000 -113.000000,527.000000 -96.000000C492.000000 -57.000000,437.000000 -39.000000,354.000000 -39.000000L287.000000 -39.000000C214.000000 -39.000000,201.000000 -45.000000,201.000000 -80.000000L201.000000 -553.000000C201.000000 -624.000000,215.000000 -638.000000,294.000000 -643.000000L294.000000 -662.000000L12.000000 -662.000000L12.000000 -643.000000C86.000000 -637.000000,99.000000 -623.000000,99.000000 -553.000000L99.000000 -109.000000C99.000000 -39.000000,85.000000 -24.000000,12.000000 -19.000000L12.000000 -0.000000L550.000000 -0.000000L598.000000 -174.000000"></path>
    </g>
    <g transform="scale(0.009963,0.009963)" id="GLYPHptmr8r_78">
      <path style="fill-rule: evenodd;" d="M612.000000 11.000000L612.000000 -515.000000C612.000000 -575.000000,622.000000 -612.000000,641.000000 -625.000000C655.000000 -635.000000,669.000000 -639.000000,707.000000 -643.000000L707.000000 -662.000000L472.000000 -662.000000L472.000000 -643.000000C510.000000 -640.000000,524.000000 -636.000000,539.000000 -627.000000C559.000000 -613.000000,568.000000 -577.000000,568.000000 -515.000000L568.000000 -178.000000L183.000000 -662.000000L12.000000 -662.000000L12.000000 -643.000000C55.000000 -643.000000,69.000000 -635.000000,109.000000 -588.000000L109.000000 -147.000000C109.000000 -44.000000,95.000000 -25.000000,12.000000 -19.000000L12.000000 -0.000000L247.000000 -0.000000L247.000000 -19.000000C170.000000 -23.000000,153.000000 -46.000000,153.000000 -147.000000L153.000000 -539.000000L595.000000 11.000000"></path>
    </g>
    <g transform="scale(0.009963,0.009963)" id="GLYPHptmr8r_83">
      <path style="fill-rule: evenodd;" d="M447.000000 -676.000000L426.000000 -676.000000C422.000000 -653.000000,411.000000 -642.000000,394.000000 -642.000000C384.000000 -642.000000,367.000000 -646.000000,350.000000 -654.000000C313.000000 -668.000000,276.000000 -676.000000,244.000000 -676.000000C201.000000 -676.000000,157.000000 -659.000000,124.000000 -630.000000C89.000000 -599.000000,71.000000 -557.000000,71.000000 -505.000000C71.000000 -425.000000,115.000000 -369.000000,227.000000 -310.000000C299.000000 -272.000000,351.000000 -231.000000,376.000000 -193.000000C385.000000 -180.000000,390.000000 -159.000000,390.000000 -135.000000C390.000000 -68.000000,340.000000 -22.000000,267.000000 -22.000000C178.000000 -22.000000,115.000000 -77.000000,65.000000 -199.000000L42.000000 -199.000000L72.000000 13.000000L94.000000 13.000000C95.000000 -6.000000,107.000000 -20.000000,122.000000 -20.000000C133.000000 -20.000000,150.000000 -16.000000,169.000000 -9.000000C207.000000 6.000000,247.000000 14.000000,287.000000 14.000000C402.000000 14.000000,491.000000 -65.000000,491.000000 -168.000000C491.000000 -250.000000,436.000000 -315.000000,304.000000 -386.000000C199.000000 -444.000000,157.000000 -488.000000,157.000000 -542.000000C157.000000 -597.000000,199.000000 -635.000000,261.000000 -635.000000C306.000000 -635.000000,348.000000 -616.000000,383.000000 -580.000000C414.000000 -548.000000,428.000000 -522.000000,444.000000 -463.000000L469.000000 -463.000000"></path>
    </g>
    <g transform="scale(0.009963,0.009963)" id="GLYPHptmr8r_86">
      <path style="fill-rule: evenodd;" d="M697.000000 -662.000000L492.000000 -662.000000L492.000000 -643.000000C547.000000 -640.000000,565.000000 -629.000000,565.000000 -601.000000C565.000000 -585.000000,558.000000 -558.000000,546.000000 -528.000000L399.000000 -161.000000L248.000000 -499.000000C215.000000 -572.000000,207.000000 -595.000000,207.000000 -610.000000C207.000000 -629.000000,221.000000 -639.000000,253.000000 -641.000000C257.000000 -641.000000,268.000000 -642.000000,282.000000 -643.000000L282.000000 -662.000000L16.000000 -662.000000L16.000000 -643.000000C65.000000 -641.000000,79.000000 -627.000000,122.000000 -538.000000L368.000000 11.000000L383.000000 11.000000L605.000000 -550.000000C638.000000 -629.000000,649.000000 -640.000000,697.000000 -643.000000"></path>
    </g>
    <g transform="scale(0.009963,0.009963)" id="GLYPHptmr8r_95">
      <path style="fill-rule: evenodd;" d="M500.000000 125.000000L500.000000 75.000000L0.000000 75.000000L0.000000 125.000000"></path>
    </g>
    <g transform="scale(0.009963,0.009963)" id="GLYPHptmr8r_97">
      <path style="fill-rule: evenodd;" d="M442.000000 -66.000000C425.000000 -52.000000,413.000000 -47.000000,398.000000 -47.000000C375.000000 -47.000000,368.000000 -61.000000,368.000000 -105.000000L368.000000 -300.000000C368.000000 -352.000000,363.000000 -381.000000,348.000000 -405.000000C326.000000 -441.000000,283.000000 -460.000000,224.000000 -460.000000C130.000000 -460.000000,56.000000 -411.000000,56.000000 -348.000000C56.000000 -325.000000,76.000000 -305.000000,99.000000 -305.000000C123.000000 -305.000000,144.000000 -325.000000,144.000000 -347.000000C144.000000 -351.000000,143.000000 -356.000000,142.000000 -363.000000C140.000000 -372.000000,139.000000 -380.000000,139.000000 -387.000000C139.000000 -414.000000,171.000000 -436.000000,211.000000 -436.000000C260.000000 -436.000000,287.000000 -407.000000,287.000000 -353.000000L287.000000 -292.000000C133.000000 -230.000000,116.000000 -222.000000,73.000000 -184.000000C51.000000 -164.000000,37.000000 -130.000000,37.000000 -97.000000C37.000000 -34.000000,81.000000 10.000000,142.000000 10.000000C186.000000 10.000000,227.000000 -11.000000,288.000000 -63.000000C293.000000 -11.000000,311.000000 10.000000,352.000000 10.000000C386.000000 10.000000,407.000000 -2.000000,442.000000 -40.000000M287.000000 -123.000000C287.000000 -92.000000,282.000000 -83.000000,261.000000 -71.000000C237.000000 -57.000000,209.000000 -48.000000,188.000000 -48.000000C153.000000 -48.000000,125.000000 -82.000000,125.000000 -125.000000L125.000000 -129.000000C125.000000 -188.000000,166.000000 -224.000000,287.000000 -268.000000"></path>
    </g>
    <g transform="scale(0.009963,0.009963)" id="GLYPHptmr8r_98">
      <path style="fill-rule: evenodd;" d="M153.000000 -681.000000L148.000000 -683.000000C106.000000 -668.000000,79.000000 -660.000000,32.000000 -647.000000L3.000000 -639.000000L3.000000 -623.000000C9.000000 -624.000000,13.000000 -624.000000,20.000000 -624.000000C60.000000 -624.000000,69.000000 -615.000000,69.000000 -573.000000L69.000000 -54.000000C69.000000 -23.000000,154.000000 10.000000,234.000000 10.000000C366.000000 10.000000,468.000000 -100.000000,468.000000 -243.000000C468.000000 -366.000000,392.000000 -460.000000,292.000000 -460.000000C231.000000 -460.000000,173.000000 -424.000000,153.000000 -375.000000M153.000000 -322.000000C153.000000 -361.000000,200.000000 -397.000000,252.000000 -397.000000C330.000000 -397.000000,380.000000 -319.000000,380.000000 -197.000000C380.000000 -86.000000,332.000000 -22.000000,250.000000 -22.000000C198.000000 -22.000000,153.000000 -45.000000,153.000000 -70.000000"></path>
    </g>
    <g transform="scale(0.009963,0.009963)" id="GLYPHptmr8r_99">
      <path style="fill-rule: evenodd;" d="M398.000000 -156.000000C350.000000 -86.000000,314.000000 -62.000000,257.000000 -62.000000C166.000000 -62.000000,102.000000 -142.000000,102.000000 -257.000000C102.000000 -360.000000,157.000000 -431.000000,238.000000 -431.000000C274.000000 -431.000000,287.000000 -420.000000,297.000000 -383.000000L303.000000 -361.000000C311.000000 -333.000000,329.000000 -315.000000,350.000000 -315.000000C376.000000 -315.000000,398.000000 -334.000000,398.000000 -357.000000C398.000000 -413.000000,328.000000 -460.000000,244.000000 -460.000000C195.000000 -460.000000,144.000000 -440.000000,103.000000 -404.000000C53.000000 -360.000000,25.000000 -292.000000,25.000000 -213.000000C25.000000 -83.000000,104.000000 10.000000,215.000000 10.000000C260.000000 10.000000,300.000000 -6.000000,336.000000 -37.000000C363.000000 -61.000000,382.000000 -88.000000,412.000000 -147.000000"></path>
    </g>
    <g transform="scale(0.009963,0.009963)" id="GLYPHptmr8r_100">
      <path style="fill-rule: evenodd;" d="M344.000000 10.000000L491.000000 -42.000000L491.000000 -58.000000C473.000000 -57.000000,471.000000 -57.000000,468.000000 -57.000000C432.000000 -57.000000,424.000000 -68.000000,424.000000 -114.000000L424.000000 -681.000000L419.000000 -683.000000C371.000000 -666.000000,336.000000 -656.000000,272.000000 -639.000000L272.000000 -623.000000C280.000000 -624.000000,286.000000 -624.000000,294.000000 -624.000000C331.000000 -624.000000,340.000000 -614.000000,340.000000 -573.000000L340.000000 -417.000000C302.000000 -449.000000,275.000000 -460.000000,235.000000 -460.000000C120.000000 -460.000000,27.000000 -347.000000,27.000000 -205.000000C27.000000 -77.000000,102.000000 10.000000,212.000000 10.000000C268.000000 10.000000,306.000000 -10.000000,340.000000 -57.000000L340.000000 7.000000M340.000000 -102.000000C340.000000 -95.000000,333.000000 -83.000000,323.000000 -72.000000C305.000000 -52.000000,280.000000 -42.000000,251.000000 -42.000000C168.000000 -42.000000,113.000000 -122.000000,113.000000 -245.000000C113.000000 -358.000000,162.000000 -432.000000,238.000000 -432.000000C291.000000 -432.000000,340.000000 -385.000000,340.000000 -332.000000"></path>
    </g>
    <g transform="scale(0.009963,0.009963)" id="GLYPHptmr8r_101">
      <path style="fill-rule: evenodd;" d="M408.000000 -164.000000C360.000000 -88.000000,317.000000 -59.000000,253.000000 -59.000000C196.000000 -59.000000,153.000000 -88.000000,124.000000 -145.000000C106.000000 -183.000000,99.000000 -216.000000,97.000000 -277.000000L405.000000 -277.000000C397.000000 -342.000000,387.000000 -371.000000,362.000000 -403.000000C332.000000 -439.000000,286.000000 -460.000000,234.000000 -460.000000C184.000000 -460.000000,137.000000 -442.000000,99.000000 -408.000000C52.000000 -367.000000,25.000000 -296.000000,25.000000 -214.000000C25.000000 -76.000000,97.000000 10.000000,212.000000 10.000000C307.000000 10.000000,382.000000 -49.000000,424.000000 -157.000000M99.000000 -309.000000C110.000000 -387.000000,144.000000 -424.000000,205.000000 -424.000000C266.000000 -424.000000,290.000000 -396.000000,303.000000 -309.000000"></path>
    </g>
    <g transform="scale(0.009963,0.009963)" id="GLYPHptmr8r_102">
      <path style="fill-rule: evenodd;" d="M309.000000 -450.000000L186.000000 -450.000000L186.000000 -566.000000C186.000000 -624.000000,205.000000 -655.000000,243.000000 -655.000000C264.000000 -655.000000,278.000000 -645.000000,296.000000 -616.000000C312.000000 -590.000000,324.000000 -580.000000,341.000000 -580.000000C364.000000 -580.000000,383.000000 -598.000000,383.000000 -621.000000C383.000000 -657.000000,339.000000 -683.000000,279.000000 -683.000000C217.000000 -683.000000,164.000000 -656.000000,138.000000 -610.000000C112.000000 -566.000000,104.000000 -530.000000,103.000000 -450.000000L21.000000 -450.000000L21.000000 -418.000000L103.000000 -418.000000L103.000000 -104.000000C103.000000 -31.000000,92.000000 -19.000000,20.000000 -15.000000L20.000000 -0.000000L280.000000 -0.000000L280.000000 -15.000000C198.000000 -18.000000,187.000000 -29.000000,187.000000 -104.000000L187.000000 -418.000000L309.000000 -418.000000"></path>
    </g>
    <g transform="scale(0.009963,0.009963)" id="GLYPHptmr8r_103">
      <path style="fill-rule: evenodd;" d="M470.000000 -388.000000L470.000000 -427.000000L393.000000 -427.000000C373.000000 -427.000000,358.000000 -430.000000,338.000000 -437.000000L316.000000 -445.000000C289.000000 -455.000000,262.000000 -460.000000,236.000000 -460.000000C143.000000 -460.000000,69.000000 -388.000000,69.000000 -297.000000C69.000000 -234.000000,96.000000 -196.000000,162.000000 -163.000000C143.000000 -145.000000,125.000000 -128.000000,119.000000 -123.000000C86.000000 -94.000000,73.000000 -74.000000,73.000000 -54.000000C73.000000 -33.000000,85.000000 -21.000000,126.000000 -1.000000C55.000000 51.000000,28.000000 84.000000,28.000000 121.000000C28.000000 174.000000,106.000000 218.000000,201.000000 218.000000C276.000000 218.000000,354.000000 192.000000,406.000000 150.000000C444.000000 119.000000,461.000000 87.000000,461.000000 49.000000C461.000000 -13.000000,414.000000 -55.000000,340.000000 -58.000000L211.000000 -64.000000C158.000000 -66.000000,133.000000 -75.000000,133.000000 -91.000000C133.000000 -111.000000,166.000000 -146.000000,193.000000 -154.000000C202.000000 -153.000000,209.000000 -152.000000,212.000000 -152.000000C231.000000 -150.000000,244.000000 -149.000000,250.000000 -149.000000C287.000000 -149.000000,327.000000 -164.000000,358.000000 -191.000000C391.000000 -219.000000,406.000000 -254.000000,406.000000 -304.000000C406.000000 -333.000000,401.000000 -356.000000,387.000000 -388.000000M147.000000 2.000000C180.000000 9.000000,260.000000 15.000000,309.000000 15.000000C400.000000 15.000000,433.000000 28.000000,433.000000 64.000000C433.000000 122.000000,357.000000 161.000000,244.000000 161.000000C156.000000 161.000000,98.000000 132.000000,98.000000 88.000000C98.000000 65.000000,105.000000 52.000000,147.000000 2.000000M152.000000 -338.000000C152.000000 -397.000000,180.000000 -432.000000,226.000000 -432.000000C257.000000 -432.000000,283.000000 -415.000000,299.000000 -385.000000C317.000000 -350.000000,329.000000 -304.000000,329.000000 -265.000000C329.000000 -209.000000,300.000000 -174.000000,254.000000 -174.000000C194.000000 -174.000000,152.000000 -239.000000,152.000000 -335.000000"></path>
    </g>
    <g transform="scale(0.009963,0.009963)" id="GLYPHptmr8r_104">
      <path style="fill-rule: evenodd;" d="M157.000000 -343.000000C199.000000 -389.000000,229.000000 -406.000000,268.000000 -406.000000C318.000000 -406.000000,343.000000 -370.000000,343.000000 -300.000000L343.000000 -102.000000C343.000000 -34.000000,333.000000 -21.000000,275.000000 -15.000000L275.000000 -0.000000L487.000000 -0.000000L487.000000 -15.000000C433.000000 -25.000000,427.000000 -33.000000,427.000000 -102.000000L427.000000 -301.000000C427.000000 -406.000000,385.000000 -460.000000,304.000000 -460.000000C245.000000 -460.000000,203.000000 -436.000000,157.000000 -376.000000L157.000000 -680.000000L152.000000 -683.000000C118.000000 -671.000000,93.000000 -663.000000,37.000000 -647.000000L10.000000 -639.000000L10.000000 -623.000000C14.000000 -624.000000,17.000000 -624.000000,22.000000 -624.000000C65.000000 -624.000000,73.000000 -616.000000,73.000000 -573.000000L73.000000 -102.000000C73.000000 -32.000000,67.000000 -23.000000,9.000000 -15.000000L9.000000 -0.000000L225.000000 -0.000000L225.000000 -15.000000C167.000000 -21.000000,157.000000 -33.000000,157.000000 -102.000000"></path>
    </g>
    <g transform="scale(0.009963,0.009963)" id="GLYPHptmr8r_105">
      <path style="fill-rule: evenodd;" d="M175.000000 -460.000000L20.000000 -405.000000L20.000000 -390.000000L28.000000 -391.000000C40.000000 -393.000000,53.000000 -394.000000,62.000000 -394.000000C86.000000 -394.000000,95.000000 -378.000000,95.000000 -334.000000L95.000000 -102.000000C95.000000 -30.000000,85.000000 -19.000000,16.000000 -15.000000L16.000000 -0.000000L253.000000 -0.000000L253.000000 -15.000000C187.000000 -20.000000,179.000000 -30.000000,179.000000 -102.000000L179.000000 -457.000000M128.000000 -683.000000C101.000000 -683.000000,78.000000 -660.000000,78.000000 -632.000000C78.000000 -604.000000,100.000000 -581.000000,128.000000 -581.000000C157.000000 -581.000000,180.000000 -603.000000,180.000000 -632.000000C180.000000 -660.000000,157.000000 -683.000000,128.000000 -683.000000"></path>
    </g>
    <g transform="scale(0.009963,0.009963)" id="GLYPHptmr8r_107">
      <path style="fill-rule: evenodd;" d="M7.000000 -623.000000C20.000000 -624.000000,29.000000 -625.000000,39.000000 -625.000000C72.000000 -625.000000,82.000000 -612.000000,82.000000 -564.000000L82.000000 -82.000000C82.000000 -30.000000,79.000000 -27.000000,7.000000 -15.000000L7.000000 -0.000000L241.000000 -0.000000L241.000000 -15.000000L221.000000 -16.000000C181.000000 -18.000000,166.000000 -32.000000,166.000000 -67.000000L166.000000 -251.000000L306.000000 -64.000000L309.000000 -60.000000C311.000000 -57.000000,313.000000 -54.000000,316.000000 -51.000000C324.000000 -41.000000,327.000000 -35.000000,327.000000 -30.000000C327.000000 -21.000000,318.000000 -15.000000,306.000000 -15.000000L287.000000 -15.000000L287.000000 -0.000000L505.000000 -0.000000L505.000000 -15.000000C461.000000 -18.000000,430.000000 -37.000000,388.000000 -88.000000L235.000000 -282.000000L264.000000 -309.000000C335.000000 -375.000000,397.000000 -421.000000,426.000000 -429.000000C441.000000 -433.000000,455.000000 -435.000000,472.000000 -435.000000L480.000000 -435.000000L480.000000 -450.000000L276.000000 -450.000000L276.000000 -436.000000C315.000000 -435.000000,326.000000 -431.000000,326.000000 -417.000000C326.000000 -409.000000,317.000000 -395.000000,303.000000 -383.000000L166.000000 -261.000000L166.000000 -681.000000L162.000000 -683.000000C124.000000 -671.000000,95.000000 -663.000000,37.000000 -647.000000L7.000000 -639.000000"></path>
    </g>
    <g transform="scale(0.009963,0.009963)" id="GLYPHptmr8r_108">
      <path style="fill-rule: evenodd;" d="M19.000000 -623.000000L25.000000 -623.000000C36.000000 -624.000000,48.000000 -625.000000,56.000000 -625.000000C88.000000 -625.000000,98.000000 -611.000000,98.000000 -564.000000L98.000000 -87.000000C98.000000 -33.000000,84.000000 -20.000000,21.000000 -15.000000L21.000000 -0.000000L257.000000 -0.000000L257.000000 -15.000000C194.000000 -19.000000,182.000000 -29.000000,182.000000 -84.000000L182.000000 -681.000000L178.000000 -683.000000C126.000000 -666.000000,88.000000 -656.000000,19.000000 -639.000000"></path>
    </g>
    <g transform="scale(0.009963,0.009963)" id="GLYPHptmr8r_109">
      <path style="fill-rule: evenodd;" d="M19.000000 -398.000000C32.000000 -401.000000,40.000000 -402.000000,51.000000 -402.000000C77.000000 -402.000000,86.000000 -386.000000,86.000000 -338.000000L86.000000 -85.000000C86.000000 -31.000000,72.000000 -16.000000,16.000000 -15.000000L16.000000 -0.000000L238.000000 -0.000000L238.000000 -15.000000C185.000000 -17.000000,170.000000 -28.000000,170.000000 -67.000000L170.000000 -349.000000C170.000000 -351.000000,178.000000 -361.000000,185.000000 -368.000000C210.000000 -391.000000,253.000000 -408.000000,288.000000 -408.000000C332.000000 -408.000000,354.000000 -373.000000,354.000000 -303.000000L354.000000 -86.000000C354.000000 -30.000000,343.000000 -19.000000,286.000000 -15.000000L286.000000 -0.000000L510.000000 -0.000000L510.000000 -15.000000C453.000000 -16.000000,438.000000 -33.000000,438.000000 -95.000000L438.000000 -347.000000C468.000000 -390.000000,501.000000 -408.000000,547.000000 -408.000000C604.000000 -408.000000,622.000000 -381.000000,622.000000 -298.000000L622.000000 -87.000000C622.000000 -30.000000,614.000000 -22.000000,556.000000 -15.000000L556.000000 -0.000000L775.000000 -0.000000L775.000000 -15.000000L749.000000 -17.000000C719.000000 -19.000000,706.000000 -37.000000,706.000000 -76.000000L706.000000 -282.000000C706.000000 -400.000000,667.000000 -460.000000,590.000000 -460.000000C532.000000 -460.000000,481.000000 -434.000000,427.000000 -376.000000C409.000000 -433.000000,375.000000 -460.000000,321.000000 -460.000000C277.000000 -460.000000,249.000000 -446.000000,166.000000 -383.000000L166.000000 -458.000000L159.000000 -460.000000C108.000000 -441.000000,74.000000 -430.000000,19.000000 -415.000000"></path>
    </g>
    <g transform="scale(0.009963,0.009963)" id="GLYPHptmr8r_110">
      <path style="fill-rule: evenodd;" d="M16.000000 -398.000000C22.000000 -401.000000,32.000000 -402.000000,43.000000 -402.000000C71.000000 -402.000000,80.000000 -387.000000,80.000000 -338.000000L80.000000 -90.000000C80.000000 -33.000000,69.000000 -19.000000,18.000000 -15.000000L18.000000 -0.000000L230.000000 -0.000000L230.000000 -15.000000C179.000000 -19.000000,164.000000 -31.000000,164.000000 -67.000000L164.000000 -348.000000C212.000000 -393.000000,234.000000 -405.000000,267.000000 -405.000000C316.000000 -405.000000,340.000000 -374.000000,340.000000 -308.000000L340.000000 -99.000000C340.000000 -36.000000,327.000000 -19.000000,277.000000 -15.000000L277.000000 -0.000000L485.000000 -0.000000L485.000000 -15.000000C436.000000 -20.000000,424.000000 -32.000000,424.000000 -81.000000L424.000000 -310.000000C424.000000 -404.000000,380.000000 -460.000000,306.000000 -460.000000C260.000000 -460.000000,229.000000 -443.000000,161.000000 -379.000000L161.000000 -458.000000L154.000000 -460.000000C105.000000 -442.000000,71.000000 -431.000000,16.000000 -415.000000"></path>
    </g>
    <g transform="scale(0.009963,0.009963)" id="GLYPHptmr8r_111">
      <path style="fill-rule: evenodd;" d="M250.000000 -460.000000C120.000000 -460.000000,29.000000 -364.000000,29.000000 -226.000000C29.000000 -91.000000,122.000000 10.000000,248.000000 10.000000C374.000000 10.000000,470.000000 -96.000000,470.000000 -234.000000C470.000000 -365.000000,378.000000 -460.000000,250.000000 -460.000000M237.000000 -432.000000C321.000000 -432.000000,380.000000 -336.000000,380.000000 -199.000000C380.000000 -86.000000,335.000000 -18.000000,260.000000 -18.000000C221.000000 -18.000000,184.000000 -42.000000,163.000000 -82.000000C135.000000 -134.000000,119.000000 -204.000000,119.000000 -275.000000C119.000000 -370.000000,166.000000 -432.000000,237.000000 -432.000000"></path>
    </g>
    <g transform="scale(0.009963,0.009963)" id="GLYPHptmr8r_112">
      <path style="fill-rule: evenodd;" d="M9.000000 -393.000000C18.000000 -394.000000,25.000000 -394.000000,34.000000 -394.000000C68.000000 -394.000000,75.000000 -384.000000,75.000000 -337.000000L75.000000 131.000000C75.000000 183.000000,64.000000 194.000000,5.000000 200.000000L5.000000 217.000000L247.000000 217.000000L247.000000 199.000000C172.000000 198.000000,159.000000 187.000000,159.000000 124.000000L159.000000 -33.000000C194.000000 -0.000000,218.000000 10.000000,260.000000 10.000000C378.000000 10.000000,470.000000 -102.000000,470.000000 -247.000000C470.000000 -371.000000,400.000000 -460.000000,303.000000 -460.000000C247.000000 -460.000000,203.000000 -435.000000,159.000000 -381.000000L159.000000 -458.000000L153.000000 -460.000000C99.000000 -439.000000,64.000000 -426.000000,9.000000 -409.000000M159.000000 -334.000000C159.000000 -364.000000,215.000000 -400.000000,261.000000 -400.000000C335.000000 -400.000000,384.000000 -324.000000,384.000000 -208.000000C384.000000 -97.000000,335.000000 -22.000000,263.000000 -22.000000C216.000000 -22.000000,159.000000 -58.000000,159.000000 -88.000000"></path>
    </g>
    <g transform="scale(0.009963,0.009963)" id="GLYPHptmr8r_114">
      <path style="fill-rule: evenodd;" d="M7.000000 -390.000000C21.000000 -393.000000,30.000000 -394.000000,42.000000 -394.000000C67.000000 -394.000000,76.000000 -378.000000,76.000000 -334.000000L76.000000 -84.000000C76.000000 -34.000000,69.000000 -27.000000,5.000000 -15.000000L5.000000 -0.000000L245.000000 -0.000000L245.000000 -15.000000C177.000000 -18.000000,160.000000 -33.000000,160.000000 -90.000000L160.000000 -315.000000C160.000000 -347.000000,203.000000 -397.000000,230.000000 -397.000000C236.000000 -397.000000,245.000000 -392.000000,256.000000 -382.000000C272.000000 -368.000000,283.000000 -362.000000,296.000000 -362.000000C320.000000 -362.000000,335.000000 -379.000000,335.000000 -407.000000C335.000000 -440.000000,314.000000 -460.000000,280.000000 -460.000000C238.000000 -460.000000,209.000000 -437.000000,160.000000 -366.000000L160.000000 -458.000000L155.000000 -460.000000C102.000000 -438.000000,66.000000 -425.000000,7.000000 -406.000000"></path>
    </g>
    <g transform="scale(0.009963,0.009963)" id="GLYPHptmr8r_115">
      <path style="fill-rule: evenodd;" d="M315.000000 -314.000000L311.000000 -450.000000L300.000000 -450.000000L298.000000 -448.000000C289.000000 -441.000000,288.000000 -440.000000,284.000000 -440.000000C278.000000 -440.000000,268.000000 -442.000000,257.000000 -447.000000C235.000000 -455.000000,213.000000 -459.000000,187.000000 -459.000000C108.000000 -459.000000,51.000000 -408.000000,51.000000 -336.000000C51.000000 -280.000000,83.000000 -240.000000,168.000000 -192.000000L226.000000 -159.000000C261.000000 -139.000000,278.000000 -115.000000,278.000000 -84.000000C278.000000 -40.000000,246.000000 -12.000000,195.000000 -12.000000C161.000000 -12.000000,130.000000 -25.000000,111.000000 -47.000000C90.000000 -72.000000,81.000000 -95.000000,68.000000 -152.000000L52.000000 -152.000000L52.000000 4.000000L65.000000 4.000000C72.000000 -6.000000,76.000000 -8.000000,88.000000 -8.000000C97.000000 -8.000000,111.000000 -6.000000,134.000000 -0.000000C162.000000 6.000000,189.000000 10.000000,207.000000 10.000000C284.000000 10.000000,348.000000 -48.000000,348.000000 -118.000000C348.000000 -168.000000,324.000000 -201.000000,264.000000 -237.000000L156.000000 -301.000000C128.000000 -317.000000,113.000000 -342.000000,113.000000 -369.000000C113.000000 -409.000000,144.000000 -437.000000,190.000000 -437.000000C247.000000 -437.000000,277.000000 -403.000000,300.000000 -314.000000"></path>
    </g>
    <g transform="scale(0.009963,0.009963)" id="GLYPHptmr8r_116">
      <path style="fill-rule: evenodd;" d="M255.000000 -450.000000L154.000000 -450.000000L154.000000 -566.000000C154.000000 -576.000000,153.000000 -579.000000,147.000000 -579.000000C140.000000 -570.000000,134.000000 -561.000000,127.000000 -551.000000C89.000000 -496.000000,46.000000 -448.000000,30.000000 -444.000000C19.000000 -437.000000,13.000000 -430.000000,13.000000 -425.000000C13.000000 -422.000000,14.000000 -420.000000,17.000000 -418.000000L70.000000 -418.000000L70.000000 -117.000000C70.000000 -33.000000,100.000000 10.000000,159.000000 10.000000C208.000000 10.000000,246.000000 -14.000000,279.000000 -66.000000L266.000000 -77.000000C245.000000 -52.000000,228.000000 -42.000000,206.000000 -42.000000C169.000000 -42.000000,154.000000 -69.000000,154.000000 -132.000000L154.000000 -418.000000L255.000000 -418.000000"></path>
    </g>
    <g transform="scale(0.009963,0.009963)" id="GLYPHptmr8r_117">
      <path style="fill-rule: evenodd;" d="M479.000000 -50.000000L474.000000 -50.000000C428.000000 -50.000000,417.000000 -61.000000,417.000000 -107.000000L417.000000 -450.000000L259.000000 -450.000000L259.000000 -433.000000C321.000000 -430.000000,333.000000 -420.000000,333.000000 -370.000000L333.000000 -135.000000C333.000000 -107.000000,328.000000 -93.000000,314.000000 -82.000000C287.000000 -60.000000,256.000000 -48.000000,226.000000 -48.000000C187.000000 -48.000000,155.000000 -82.000000,155.000000 -124.000000L155.000000 -450.000000L9.000000 -450.000000L9.000000 -436.000000C57.000000 -433.000000,71.000000 -418.000000,71.000000 -372.000000L71.000000 -120.000000C71.000000 -41.000000,119.000000 10.000000,192.000000 10.000000C229.000000 10.000000,268.000000 -6.000000,295.000000 -33.000000L338.000000 -76.000000L338.000000 7.000000L342.000000 9.000000C392.000000 -11.000000,428.000000 -22.000000,479.000000 -36.000000"></path>
    </g>
    <g transform="scale(0.009963,0.009963)" id="GLYPHptmr8r_118">
      <path style="fill-rule: evenodd;" d="M477.000000 -450.000000L338.000000 -450.000000L338.000000 -435.000000C370.000000 -432.000000,385.000000 -422.000000,385.000000 -403.000000C385.000000 -393.000000,383.000000 -383.000000,379.000000 -373.000000L280.000000 -114.000000L178.000000 -370.000000C172.000000 -384.000000,169.000000 -398.000000,169.000000 -407.000000C169.000000 -425.000000,180.000000 -432.000000,215.000000 -435.000000L215.000000 -450.000000L19.000000 -450.000000L19.000000 -435.000000C57.000000 -433.000000,64.000000 -423.000000,110.000000 -320.000000L230.000000 -33.000000C232.000000 -27.000000,235.000000 -20.000000,238.000000 -12.000000C244.000000 6.000000,250.000000 14.000000,256.000000 14.000000C262.000000 14.000000,269.000000 1.000000,284.000000 -36.000000L412.000000 -357.000000C441.000000 -425.000000,447.000000 -432.000000,477.000000 -435.000000"></path>
    </g>
    <g transform="scale(0.009963,0.009963)" id="GLYPHptmr8r_119">
      <path style="fill-rule: evenodd;" d="M571.000000 -450.000000L571.000000 -435.000000C605.000000 -428.000000,615.000000 -421.000000,615.000000 -404.000000C615.000000 -389.000000,609.000000 -365.000000,598.000000 -338.000000L508.000000 -116.000000L424.000000 -340.000000C407.000000 -386.000000,407.000000 -386.000000,407.000000 -399.000000C407.000000 -421.000000,418.000000 -428.000000,465.000000 -435.000000L465.000000 -450.000000L262.000000 -450.000000L262.000000 -435.000000C299.000000 -431.000000,311.000000 -420.000000,331.000000 -366.000000C338.000000 -347.000000,345.000000 -328.000000,351.000000 -310.000000L260.000000 -111.000000L161.000000 -372.000000C157.000000 -382.000000,155.000000 -392.000000,155.000000 -402.000000C155.000000 -423.000000,167.000000 -431.000000,201.000000 -435.000000L201.000000 -450.000000L21.000000 -450.000000L21.000000 -435.000000C44.000000 -433.000000,52.000000 -423.000000,74.000000 -372.000000L209.000000 -30.000000C221.000000 -0.000000,229.000000 14.000000,235.000000 14.000000C240.000000 14.000000,248.000000 1.000000,260.000000 -25.000000L372.000000 -265.000000L463.000000 -29.000000C477.000000 8.000000,481.000000 14.000000,487.000000 14.000000C494.000000 14.000000,499.000000 5.000000,515.000000 -35.000000L653.000000 -381.000000C671.000000 -423.000000,674.000000 -428.000000,694.000000 -435.000000L694.000000 -450.000000"></path>
    </g>
    <g transform="scale(0.009963,0.009963)" id="GLYPHptmr8r_120">
      <path style="fill-rule: evenodd;" d="M278.000000 -0.000000L479.000000 -0.000000L479.000000 -15.000000C448.000000 -15.000000,428.000000 -31.000000,397.000000 -75.000000L269.000000 -271.000000L352.000000 -391.000000C371.000000 -418.000000,401.000000 -434.000000,433.000000 -435.000000L433.000000 -450.000000L275.000000 -450.000000L275.000000 -435.000000C305.000000 -433.000000,315.000000 -427.000000,315.000000 -413.000000C315.000000 -401.000000,303.000000 -379.000000,278.000000 -348.000000C273.000000 -342.000000,261.000000 -324.000000,248.000000 -304.000000L234.000000 -324.000000C206.000000 -366.000000,188.000000 -400.000000,188.000000 -413.000000C188.000000 -427.000000,201.000000 -434.000000,231.000000 -435.000000L231.000000 -450.000000L24.000000 -450.000000L24.000000 -435.000000L33.000000 -435.000000C63.000000 -435.000000,79.000000 -422.000000,110.000000 -375.000000L204.000000 -231.000000L90.000000 -66.000000C60.000000 -25.000000,50.000000 -18.000000,17.000000 -15.000000L17.000000 -0.000000L162.000000 -0.000000L162.000000 -15.000000C134.000000 -15.000000,122.000000 -20.000000,122.000000 -33.000000C122.000000 -39.000000,129.000000 -54.000000,142.000000 -74.000000L221.000000 -197.000000L312.000000 -57.000000C316.000000 -51.000000,318.000000 -45.000000,318.000000 -39.000000C318.000000 -21.000000,311.000000 -17.000000,278.000000 -15.000000"></path>
    </g>
    <g transform="scale(0.009963,0.009963)" id="GLYPHptmr8r_121">
      <path style="fill-rule: evenodd;" d="M475.000000 -450.000000L340.000000 -450.000000L340.000000 -435.000000C372.000000 -435.000000,388.000000 -426.000000,388.000000 -410.000000C388.000000 -406.000000,387.000000 -400.000000,384.000000 -393.000000L287.000000 -117.000000L172.000000 -370.000000C166.000000 -384.000000,162.000000 -397.000000,162.000000 -408.000000C162.000000 -426.000000,177.000000 -433.000000,220.000000 -435.000000L220.000000 -450.000000L14.000000 -450.000000L14.000000 -436.000000C40.000000 -432.000000,57.000000 -421.000000,65.000000 -404.000000L179.000000 -158.000000L182.000000 -150.000000L197.000000 -120.000000C225.000000 -70.000000,241.000000 -34.000000,241.000000 -19.000000C241.000000 -4.000000,218.000000 59.000000,201.000000 89.000000C187.000000 115.000000,165.000000 134.000000,151.000000 134.000000C145.000000 134.000000,136.000000 132.000000,126.000000 127.000000C107.000000 120.000000,90.000000 116.000000,73.000000 116.000000C50.000000 116.000000,30.000000 136.000000,30.000000 160.000000C30.000000 193.000000,62.000000 218.000000,104.000000 218.000000C171.000000 218.000000,219.000000 162.000000,273.000000 18.000000L427.000000 -390.000000C440.000000 -422.000000,451.000000 -432.000000,475.000000 -435.000000"></path>
    </g>
    <g transform="scale(0.009963,0.009963)" id="GLYPHptmr8r_122">
      <path style="fill-rule: evenodd;" d="M418.000000 -135.000000L400.000000 -139.000000C390.000000 -89.000000,384.000000 -73.000000,371.000000 -56.000000C357.000000 -39.000000,323.000000 -30.000000,272.000000 -30.000000L134.000000 -30.000000L403.000000 -435.000000L403.000000 -450.000000L56.000000 -450.000000L53.000000 -332.000000L71.000000 -332.000000C80.000000 -405.000000,95.000000 -420.000000,155.000000 -420.000000L293.000000 -420.000000L27.000000 -15.000000L27.000000 -0.000000L404.000000 -0.000000"></path>
    </g>
  </defs>
  <path d="M172.000000 1.000000L283.335602 1.000000L283.335602 73.994720L172.000000 73.994720Z" style="fill: rgb(69.999695%,69.999695%,69.999695%);stroke: none;"></path>
  <path d="M171.000000 -0.000000L282.335602 -0.000000L282.335602 72.994720L171.000000 72.994720Z" style="fill: rgb(89.999390%,89.999390%,89.999390%);stroke: none;"></path>
  <path d="M171.000000 -0.000000L282.335602 -0.000000L282.335602 72.994720L171.000000 72.994720Z" style="stroke:rgb(0.000000%,0.000000%,0.000000%); stroke-width: 0.500000;stroke-linecap: round;stroke-linejoin: round;stroke-miterlimit: 10.000000;fill: none;"></path>
  <path d="M171.000000 12.485565L282.335602 12.485565" style="stroke:rgb(0.000000%,0.000000%,0.000000%); stroke-width: 0.500000;stroke-linecap: round;stroke-linejoin: round;stroke-miterlimit: 10.000000;fill: none;"></path>
  <path d="M171.000000 58.490143L282.335602 58.490143" style="stroke:rgb(0.000000%,0.000000%,0.000000%); stroke-width: 0.500000;stroke-linecap: round;stroke-linejoin: round;stroke-miterlimit: 10.000000;fill: none;"></path>
  <g transform="translate(213.113770 9.485565)" style="fill: rgb(0.000000%,0.000000%,0.000000%);">
    <use xlink:href="#GLYPHptmr8r_86"></use>
    <use xlink:href="#GLYPHptmr8r_101" x="7.220077"></use>
    <use xlink:href="#GLYPHptmr8r_114" x="11.660087"></use>
    <use xlink:href="#GLYPHptmr8r_116" x="14.990099"></use>
    <use xlink:href="#GLYPHptmr8r_101" x="17.770043"></use>
    <use xlink:href="#GLYPHptmr8r_120" x="22.210054"></use>
  </g>
  <g transform="translate(184.000000 22.990143)" style="fill: rgb(0.000000%,0.000000%,0.000000%);">
    <use xlink:href="#GLYPHptmr8r_73"></use>
    <use xlink:href="#GLYPHptmr8r_68" x="3.330012"></use>
    <use xlink:href="#GLYPHptmr8r_58" x="10.550089"></use>
    <use xlink:href="#GLYPHptmr8r_32" x="13.330033"></use>
    <use xlink:href="#GLYPHptmr8r_105" x="15.830073"></use>
    <use xlink:href="#GLYPHptmr8r_110" x="18.610017"></use>
    <use xlink:href="#GLYPHptmr8r_116" x="23.610096"></use>
  </g>
  <g transform="translate(184.000000 33.490143)" style="fill: rgb(0.000000%,0.000000%,0.000000%);">
    <use xlink:href="#GLYPHptmr8r_108"></use>
    <use xlink:href="#GLYPHptmr8r_111" x="2.779944"></use>
    <use xlink:href="#GLYPHptmr8r_99" x="7.780024"></use>
    <use xlink:href="#GLYPHptmr8r_97" x="12.220034"></use>
    <use xlink:href="#GLYPHptmr8r_116" x="16.660044"></use>
    <use xlink:href="#GLYPHptmr8r_105" x="19.439989"></use>
    <use xlink:href="#GLYPHptmr8r_111" x="22.219933"></use>
    <use xlink:href="#GLYPHptmr8r_110" x="27.220012"></use>
    <use xlink:href="#GLYPHptmr8r_58" x="32.220092"></use>
    <use xlink:href="#GLYPHptmr8r_32" x="35.000036"></use>
    <use xlink:href="#GLYPHptmr8r_76" x="37.500075"></use>
    <use xlink:href="#GLYPHptmr8r_105" x="43.610154"></use>
    <use xlink:href="#GLYPHptmr8r_115" x="46.390098"></use>
    <use xlink:href="#GLYPHptmr8r_116" x="50.280056"></use>
  </g>
  <g transform="translate(184.000000 43.990143)" style="fill: rgb(0.000000%,0.000000%,0.000000%);">
    <use xlink:href="#GLYPHptmr8r_116"></use>
    <use xlink:href="#GLYPHptmr8r_121" x="2.779944"></use>
    <use xlink:href="#GLYPHptmr8r_112" x="7.780024"></use>
    <use xlink:href="#GLYPHptmr8r_101" x="12.780103"></use>
    <use xlink:href="#GLYPHptmr8r_58" x="17.220114"></use>
    <use xlink:href="#GLYPHptmr8r_32" x="20.000058"></use>
    <use xlink:href="#GLYPHptmr8r_83" x="22.500097"></use>
    <use xlink:href="#GLYPHptmr8r_116" x="28.060123"></use>
    <use xlink:href="#GLYPHptmr8r_114" x="30.840068"></use>
    <use xlink:href="#GLYPHptmr8r_105" x="34.170079"></use>
    <use xlink:href="#GLYPHptmr8r_110" x="36.950023"></use>
    <use xlink:href="#GLYPHptmr8r_103" x="41.950103"></use>
  </g>
  <g transform="translate(184.000000 54.490143)" style="fill: rgb(0.000000%,0.000000%,0.000000%);">
    <use xlink:href="#GLYPHptmr8r_110"></use>
    <use xlink:href="#GLYPHptmr8r_101" x="5.000079"></use>
    <use xlink:href="#GLYPHptmr8r_117" x="9.440090"></use>
    <use xlink:href="#GLYPHptmr8r_114" x="14.440169"></use>
    <use xlink:href="#GLYPHptmr8r_111" x="17.770181"></use>
    <use xlink:href="#GLYPHptmr8r_110" x="22.770261"></use>
    <use xlink:href="#GLYPHptmr8r_58" x="27.770340"></use>
    <use xlink:href="#GLYPHptmr8r_32" x="30.550284"></use>
    <use xlink:href="#GLYPHptmr8r_71" x="33.050324"></use>
    <use xlink:href="#GLYPHptmr8r_101" x="40.270401"></use>
    <use xlink:href="#GLYPHptmr8r_110" x="44.710411"></use>
    <use xlink:href="#GLYPHptmr8r_101" x="49.710491"></use>
    <use xlink:href="#GLYPHptmr8r_114" x="54.150501"></use>
    <use xlink:href="#GLYPHptmr8r_105" x="57.480513"></use>
    <use xlink:href="#GLYPHptmr8r_99" x="60.260457"></use>
    <use xlink:href="#GLYPHptmr8r_78" x="64.700468"></use>
    <use xlink:href="#GLYPHptmr8r_101" x="71.920545"></use>
    <use xlink:href="#GLYPHptmr8r_117" x="76.360555"></use>
    <use xlink:href="#GLYPHptmr8r_114" x="81.360635"></use>
    <use xlink:href="#GLYPHptmr8r_111" x="84.690646"></use>
    <use xlink:href="#GLYPHptmr8r_110" x="89.690726"></use>
  </g>
  <g transform="translate(184.000000 68.994720)" style="fill: rgb(0.000000%,0.000000%,0.000000%);">
    <use xlink:href="#GLYPHptmr8r_103"></use>
    <use xlink:href="#GLYPHptmr8r_101" x="5.000079"></use>
    <use xlink:href="#GLYPHptmr8r_116" x="9.440090"></use>
    <use xlink:href="#GLYPHptmr8r_78" x="12.220034"></use>
    <use xlink:href="#GLYPHptmr8r_101" x="19.440111"></use>
    <use xlink:href="#GLYPHptmr8r_117" x="23.880122"></use>
    <use xlink:href="#GLYPHptmr8r_114" x="28.880201"></use>
    <use xlink:href="#GLYPHptmr8r_111" x="32.210213"></use>
    <use xlink:href="#GLYPHptmr8r_110" x="37.210292"></use>
    <use xlink:href="#GLYPHptmr8r_73" x="42.210372"></use>
    <use xlink:href="#GLYPHptmr8r_110" x="45.540383"></use>
    <use xlink:href="#GLYPHptmr8r_102" x="50.540463"></use>
    <use xlink:href="#GLYPHptmr8r_111" x="53.870474"></use>
    <use xlink:href="#GLYPHptmr8r_40" x="58.870554"></use>
    <use xlink:href="#GLYPHptmr8r_41" x="62.200566"></use>
  </g>
  <path d="M173.000000 20.290192L178.950043 20.290192L178.950043 22.990143L173.000000 22.990143Z" style="fill: rgb(39.999390%,39.999390%,39.999390%);stroke: none;"></path>
  <path d="M178.950043 22.990143L180.000000 21.940186L180.000000 19.240234L178.950043 20.290192Z" style="fill: rgb(69.999695%,69.999695%,69.999695%);stroke: none;"></path>
  <path d="M178.950043 20.290192L180.000000 19.240234L174.049957 19.240234L173.000000 20.290192Z" style="fill: rgb(60.000610%,60.000610%,60.000610%);stroke: none;"></path>
  <path d="M173.000000 30.790192L178.950043 30.790192L178.950043 33.490143L173.000000 33.490143Z" style="fill: rgb(39.999390%,39.999390%,39.999390%);stroke: none;"></path>
  <path d="M178.950043 33.490143L180.000000 32.440186L180.000000 29.740234L178.950043 30.790192Z" style="fill: rgb(69.999695%,69.999695%,69.999695%);stroke: none;"></path>
  <path d="M178.950043 30.790192L180.000000 29.740234L174.049957 29.740234L173.000000 30.790192Z" style="fill: rgb(60.000610%,60.000610%,60.000610%);stroke: none;"></path>
  <path d="M173.000000 41.290192L178.950043 41.290192L178.950043 43.990143L173.000000 43.990143Z" style="fill: rgb(39.999390%,39.999390%,39.999390%);stroke: none;"></path>
  <path d="M178.950043 43.990143L180.000000 42.940186L180.000000 40.240234L178.950043 41.290192Z" style="fill: rgb(69.999695%,69.999695%,69.999695%);stroke: none;"></path>
  <path d="M178.950043 41.290192L180.000000 40.240234L174.049957 40.240234L173.000000 41.290192Z" style="fill: rgb(60.000610%,60.000610%,60.000610%);stroke: none;"></path>
  <path d="M173.000000 51.790192L178.950043 51.790192L178.950043 54.490143L173.000000 54.490143Z" style="fill: rgb(39.999390%,39.999390%,39.999390%);stroke: none;"></path>
  <path d="M178.950043 54.490143L180.000000 53.440186L180.000000 50.740234L178.950043 51.790192Z" style="fill: rgb(69.999695%,69.999695%,69.999695%);stroke: none;"></path>
  <path d="M178.950043 51.790192L180.000000 50.740234L174.049957 50.740234L173.000000 51.790192Z" style="fill: rgb(60.000610%,60.000610%,60.000610%);stroke: none;"></path>
  <path d="M174.574982 49.015213C175.092331 48.380035,175.689423 47.724365,176.500000 47.740143C177.975616 47.768875,178.469177 49.561111,178.425018 51.265213" style="stroke:rgb(30.000305%,30.000305%,30.000305%); stroke-width: 0.797012;stroke-linejoin: round;stroke-miterlimit: 10.000000;fill: none;"></path>
  <path d="M173.000000 66.294769L178.950043 66.294769L178.950043 68.994720L173.000000 68.994720Z" style="fill: rgb(39.999390%,39.999390%,39.999390%);stroke: none;"></path>
  <path d="M178.950043 68.994720L180.000000 67.944763L180.000000 65.244812L178.950043 66.294769Z" style="fill: rgb(69.999695%,69.999695%,69.999695%);stroke: none;"></path>
  <path d="M178.950043 66.294769L180.000000 65.244812L174.049957 65.244812L173.000000 66.294769Z" style="fill: rgb(60.000610%,60.000610%,60.000610%);stroke: none;"></path>
  <path d="M190.463165 113.994720L264.872437 113.994720L264.872437 156.253876L190.463165 156.253876Z" style="fill: rgb(69.999695%,69.999695%,69.999695%);stroke: none;"></path>
  <path d="M189.463165 112.994720L263.872437 112.994720L263.872437 155.253876L189.463165 155.253876Z" style="fill: rgb(89.999390%,89.999390%,89.999390%);stroke: none;"></path>
  <path d="M189.463165 112.994720L263.872437 112.994720L263.872437 155.253876L189.463165 155.253876Z" style="stroke:rgb(0.000000%,0.000000%,0.000000%); stroke-width: 0.500000;stroke-linejoin: round;stroke-miterlimit: 10.000000;fill: none;"></path>
  <path d="M189.463165 125.749298L263.872437 125.749298" style="stroke:rgb(0.000000%,0.000000%,0.000000%); stroke-width: 0.500000;stroke-linejoin: round;stroke-miterlimit: 10.000000;fill: none;"></path>
  <path d="M189.463165 130.249298L263.872437 130.249298" style="stroke:rgb(0.000000%,0.000000%,0.000000%); stroke-width: 0.500000;stroke-linejoin: round;stroke-miterlimit: 10.000000;fill: none;"></path>
  <g transform="translate(195.963165 122.749298)" style="fill: rgb(0.000000%,0.000000%,0.000000%);">
    <use xlink:href="#GLYPHptmr8r_71"></use>
    <use xlink:href="#GLYPHptmr8r_101" x="7.220077"></use>
    <use xlink:href="#GLYPHptmr8r_110" x="11.660087"></use>
    <use xlink:href="#GLYPHptmr8r_101" x="16.660167"></use>
    <use xlink:href="#GLYPHptmr8r_114" x="21.100177"></use>
    <use xlink:href="#GLYPHptmr8r_105" x="24.430189"></use>
    <use xlink:href="#GLYPHptmr8r_99" x="27.210133"></use>
    <use xlink:href="#GLYPHptmr8r_78" x="31.650144"></use>
    <use xlink:href="#GLYPHptmr8r_101" x="38.870221"></use>
    <use xlink:href="#GLYPHptmr8r_117" x="43.310231"></use>
    <use xlink:href="#GLYPHptmr8r_114" x="48.310311"></use>
    <use xlink:href="#GLYPHptmr8r_111" x="51.640322"></use>
    <use xlink:href="#GLYPHptmr8r_110" x="56.640402"></use>
  </g>
  <g transform="translate(202.463165 140.753876)" style="fill: rgb(0.000000%,0.000000%,0.000000%);">
    <use xlink:href="#GLYPHptmr8r_105"></use>
    <use xlink:href="#GLYPHptmr8r_110" x="2.779944"></use>
    <use xlink:href="#GLYPHptmr8r_105" x="7.780024"></use>
    <use xlink:href="#GLYPHptmr8r_116" x="10.559968"></use>
    <use xlink:href="#GLYPHptmr8r_40" x="13.339912"></use>
    <use xlink:href="#GLYPHptmr8r_41" x="16.669923"></use>
  </g>
  <g transform="translate(202.463165 151.253876)" style="fill: rgb(0.000000%,0.000000%,0.000000%);">
    <use xlink:href="#GLYPHptmr8r_115"></use>
    <use xlink:href="#GLYPHptmr8r_105" x="3.889958"></use>
    <use xlink:href="#GLYPHptmr8r_109" x="6.669902"></use>
    <use xlink:href="#GLYPHptmr8r_117" x="14.449926"></use>
    <use xlink:href="#GLYPHptmr8r_108" x="19.450005"></use>
    <use xlink:href="#GLYPHptmr8r_97" x="22.229949"></use>
    <use xlink:href="#GLYPHptmr8r_116" x="26.669960"></use>
    <use xlink:href="#GLYPHptmr8r_101" x="29.449904"></use>
    <use xlink:href="#GLYPHptmr8r_40" x="33.889914"></use>
    <use xlink:href="#GLYPHptmr8r_41" x="37.219926"></use>
  </g>
  <path d="M191.463165 138.053925L197.413208 138.053925L197.413208 140.753876L191.463165 140.753876Z" style="fill: rgb(39.999390%,39.999390%,39.999390%);stroke: none;"></path>
  <path d="M197.413208 140.753876L198.463165 139.703918L198.463165 137.003967L197.413208 138.053925Z" style="fill: rgb(69.999695%,69.999695%,69.999695%);stroke: none;"></path>
  <path d="M197.413208 138.053925L198.463165 137.003967L192.513123 137.003967L191.463165 138.053925Z" style="fill: rgb(60.000610%,60.000610%,60.000610%);stroke: none;"></path>
  <path d="M191.463165 148.553925L197.413208 148.553925L197.413208 151.253876L191.463165 151.253876Z" style="fill: rgb(39.999390%,39.999390%,39.999390%);stroke: none;"></path>
  <path d="M197.413208 151.253876L198.463165 150.203918L198.463165 147.503967L197.413208 148.553925Z" style="fill: rgb(69.999695%,69.999695%,69.999695%);stroke: none;"></path>
  <path d="M197.413208 148.553925L198.463165 147.503967L192.513123 147.503967L191.463165 148.553925Z" style="fill: rgb(60.000610%,60.000610%,60.000610%);stroke: none;"></path>
  <path d="M0.927551 196.253876L214.408051 196.253876L214.408051 248.248596L0.927551 248.248596Z" style="fill: rgb(69.999695%,69.999695%,69.999695%);stroke: none;"></path>
  <path d="M-0.072449 195.253876L213.408051 195.253876L213.408051 247.248596L-0.072449 247.248596Z" style="fill: rgb(89.999390%,89.999390%,89.999390%);stroke: none;"></path>
  <path d="M-0.072449 195.253876L213.408051 195.253876L213.408051 247.248596L-0.072449 247.248596Z" style="stroke:rgb(0.000000%,0.000000%,0.000000%); stroke-width: 0.500000;stroke-linejoin: round;stroke-miterlimit: 10.000000;fill: none;"></path>
  <path d="M-0.072449 207.739441L213.408051 207.739441" style="stroke:rgb(0.000000%,0.000000%,0.000000%); stroke-width: 0.500000;stroke-linejoin: round;stroke-miterlimit: 10.000000;fill: none;"></path>
  <path d="M-0.072449 222.244019L213.408051 222.244019" style="stroke:rgb(0.000000%,0.000000%,0.000000%); stroke-width: 0.500000;stroke-linejoin: round;stroke-miterlimit: 10.000000;fill: none;"></path>
  <g transform="translate(84.256958 204.739441)" style="fill: rgb(0.000000%,0.000000%,0.000000%);">
    <use xlink:href="#GLYPHptmr8r_76"></use>
    <use xlink:href="#GLYPHptmr8r_73" x="6.110078"></use>
    <use xlink:href="#GLYPHptmr8r_70" x="9.440090"></use>
    <use xlink:href="#GLYPHptmr8r_78" x="15.000116"></use>
    <use xlink:href="#GLYPHptmr8r_101" x="22.220193"></use>
    <use xlink:href="#GLYPHptmr8r_117" x="26.660203"></use>
    <use xlink:href="#GLYPHptmr8r_114" x="31.660283"></use>
    <use xlink:href="#GLYPHptmr8r_111" x="34.990295"></use>
    <use xlink:href="#GLYPHptmr8r_110" x="39.990374"></use>
  </g>
  <g transform="translate(12.927551 218.244019)" style="fill: rgb(0.000000%,0.000000%,0.000000%);">
    <use xlink:href="#GLYPHptmr8r_116"></use>
    <use xlink:href="#GLYPHptmr8r_121" x="2.779944"></use>
    <use xlink:href="#GLYPHptmr8r_112" x="7.780024"></use>
    <use xlink:href="#GLYPHptmr8r_101" x="12.780103"></use>
    <use xlink:href="#GLYPHptmr8r_58" x="17.220114"></use>
    <use xlink:href="#GLYPHptmr8r_32" x="20.000058"></use>
    <use xlink:href="#GLYPHptmr8r_83" x="22.500097"></use>
    <use xlink:href="#GLYPHptmr8r_116" x="28.060123"></use>
    <use xlink:href="#GLYPHptmr8r_114" x="30.840068"></use>
    <use xlink:href="#GLYPHptmr8r_105" x="34.170079"></use>
    <use xlink:href="#GLYPHptmr8r_110" x="36.950023"></use>
    <use xlink:href="#GLYPHptmr8r_103" x="41.950103"></use>
  </g>
  <g transform="translate(12.927551 232.748596)" style="fill: rgb(0.000000%,0.000000%,0.000000%);">
    <use xlink:href="#GLYPHptmr8r_105"></use>
    <use xlink:href="#GLYPHptmr8r_110" x="2.779944"></use>
    <use xlink:href="#GLYPHptmr8r_105" x="7.780024"></use>
    <use xlink:href="#GLYPHptmr8r_116" x="10.559968"></use>
    <use xlink:href="#GLYPHptmr8r_40" x="13.339912"></use>
    <use xlink:href="#GLYPHptmr8r_118" x="16.669923"></use>
    <use xlink:href="#GLYPHptmr8r_95" x="21.670003"></use>
    <use xlink:href="#GLYPHptmr8r_116" x="26.670082"></use>
    <use xlink:href="#GLYPHptmr8r_58" x="29.450027"></use>
    <use xlink:href="#GLYPHptmr8r_32" x="32.229971"></use>
    <use xlink:href="#GLYPHptmr8r_102" x="34.730010"></use>
    <use xlink:href="#GLYPHptmr8r_108" x="38.060022"></use>
    <use xlink:href="#GLYPHptmr8r_111" x="40.839966"></use>
    <use xlink:href="#GLYPHptmr8r_97" x="45.840046"></use>
    <use xlink:href="#GLYPHptmr8r_116" x="50.280056"></use>
    <use xlink:href="#GLYPHptmr8r_44" x="53.060000"></use>
    <use xlink:href="#GLYPHptmr8r_32" x="55.560040"></use>
    <use xlink:href="#GLYPHptmr8r_118" x="58.060080"></use>
    <use xlink:href="#GLYPHptmr8r_95" x="63.060159"></use>
    <use xlink:href="#GLYPHptmr8r_48" x="68.060239"></use>
    <use xlink:href="#GLYPHptmr8r_58" x="73.060318"></use>
    <use xlink:href="#GLYPHptmr8r_32" x="75.840262"></use>
    <use xlink:href="#GLYPHptmr8r_102" x="78.340302"></use>
    <use xlink:href="#GLYPHptmr8r_108" x="81.670314"></use>
    <use xlink:href="#GLYPHptmr8r_111" x="84.450258"></use>
    <use xlink:href="#GLYPHptmr8r_97" x="89.450337"></use>
    <use xlink:href="#GLYPHptmr8r_116" x="93.890348"></use>
    <use xlink:href="#GLYPHptmr8r_44" x="96.670292"></use>
    <use xlink:href="#GLYPHptmr8r_32" x="99.170332"></use>
    <use xlink:href="#GLYPHptmr8r_101" x="101.670371"></use>
    <use xlink:href="#GLYPHptmr8r_116" x="106.110382"></use>
    <use xlink:href="#GLYPHptmr8r_97" x="108.890326"></use>
    <use xlink:href="#GLYPHptmr8r_95" x="113.330336"></use>
    <use xlink:href="#GLYPHptmr8r_116" x="118.330416"></use>
    <use xlink:href="#GLYPHptmr8r_58" x="121.110360"></use>
    <use xlink:href="#GLYPHptmr8r_32" x="123.890304"></use>
    <use xlink:href="#GLYPHptmr8r_105" x="126.390344"></use>
    <use xlink:href="#GLYPHptmr8r_110" x="129.170288"></use>
    <use xlink:href="#GLYPHptmr8r_116" x="134.170367"></use>
    <use xlink:href="#GLYPHptmr8r_44" x="136.950311"></use>
    <use xlink:href="#GLYPHptmr8r_32" x="139.450351"></use>
    <use xlink:href="#GLYPHptmr8r_115" x="141.950391"></use>
    <use xlink:href="#GLYPHptmr8r_112" x="145.840349"></use>
    <use xlink:href="#GLYPHptmr8r_105" x="150.840429"></use>
    <use xlink:href="#GLYPHptmr8r_107" x="153.620373"></use>
    <use xlink:href="#GLYPHptmr8r_101" x="158.620452"></use>
    <use xlink:href="#GLYPHptmr8r_95" x="163.060463"></use>
    <use xlink:href="#GLYPHptmr8r_104" x="168.060542"></use>
    <use xlink:href="#GLYPHptmr8r_58" x="173.060622"></use>
    <use xlink:href="#GLYPHptmr8r_32" x="175.840566"></use>
    <use xlink:href="#GLYPHptmr8r_105" x="178.340605"></use>
    <use xlink:href="#GLYPHptmr8r_110" x="181.120550"></use>
    <use xlink:href="#GLYPHptmr8r_116" x="186.120629"></use>
    <use xlink:href="#GLYPHptmr8r_41" x="188.900573"></use>
  </g>
  <g transform="translate(12.927551 243.248596)" style="fill: rgb(0.000000%,0.000000%,0.000000%);">
    <use xlink:href="#GLYPHptmr8r_115"></use>
    <use xlink:href="#GLYPHptmr8r_105" x="3.889958"></use>
    <use xlink:href="#GLYPHptmr8r_109" x="6.669902"></use>
    <use xlink:href="#GLYPHptmr8r_117" x="14.449926"></use>
    <use xlink:href="#GLYPHptmr8r_108" x="19.450005"></use>
    <use xlink:href="#GLYPHptmr8r_97" x="22.229949"></use>
    <use xlink:href="#GLYPHptmr8r_116" x="26.669960"></use>
    <use xlink:href="#GLYPHptmr8r_101" x="29.449904"></use>
    <use xlink:href="#GLYPHptmr8r_40" x="33.889914"></use>
    <use xlink:href="#GLYPHptmr8r_115" x="37.219926"></use>
    <use xlink:href="#GLYPHptmr8r_112" x="41.109884"></use>
    <use xlink:href="#GLYPHptmr8r_105" x="46.109964"></use>
    <use xlink:href="#GLYPHptmr8r_107" x="48.889908"></use>
    <use xlink:href="#GLYPHptmr8r_101" x="53.889987"></use>
    <use xlink:href="#GLYPHptmr8r_95" x="58.329998"></use>
    <use xlink:href="#GLYPHptmr8r_116" x="63.330077"></use>
    <use xlink:href="#GLYPHptmr8r_114" x="66.110021"></use>
    <use xlink:href="#GLYPHptmr8r_97" x="69.440033"></use>
    <use xlink:href="#GLYPHptmr8r_105" x="73.880043"></use>
    <use xlink:href="#GLYPHptmr8r_110" x="76.659988"></use>
    <use xlink:href="#GLYPHptmr8r_58" x="81.660067"></use>
    <use xlink:href="#GLYPHptmr8r_32" x="84.440011"></use>
    <use xlink:href="#GLYPHptmr8r_76" x="86.940051"></use>
    <use xlink:href="#GLYPHptmr8r_105" x="93.050129"></use>
    <use xlink:href="#GLYPHptmr8r_115" x="95.830073"></use>
    <use xlink:href="#GLYPHptmr8r_116" x="99.720031"></use>
    <use xlink:href="#GLYPHptmr8r_44" x="102.499976"></use>
    <use xlink:href="#GLYPHptmr8r_32" x="105.000015"></use>
    <use xlink:href="#GLYPHptmr8r_119" x="107.500055"></use>
    <use xlink:href="#GLYPHptmr8r_101" x="114.720132"></use>
    <use xlink:href="#GLYPHptmr8r_105" x="119.160143"></use>
    <use xlink:href="#GLYPHptmr8r_103" x="121.940087"></use>
    <use xlink:href="#GLYPHptmr8r_104" x="126.940166"></use>
    <use xlink:href="#GLYPHptmr8r_116" x="131.940246"></use>
    <use xlink:href="#GLYPHptmr8r_115" x="134.720190"></use>
    <use xlink:href="#GLYPHptmr8r_58" x="138.610148"></use>
    <use xlink:href="#GLYPHptmr8r_32" x="141.390092"></use>
    <use xlink:href="#GLYPHptmr8r_76" x="143.890132"></use>
    <use xlink:href="#GLYPHptmr8r_105" x="150.000210"></use>
    <use xlink:href="#GLYPHptmr8r_115" x="152.780154"></use>
    <use xlink:href="#GLYPHptmr8r_116" x="156.670112"></use>
    <use xlink:href="#GLYPHptmr8r_41" x="159.450056"></use>
    <use xlink:href="#GLYPHptmr8r_58" x="162.780068"></use>
    <use xlink:href="#GLYPHptmr8r_98" x="165.560012"></use>
    <use xlink:href="#GLYPHptmr8r_111" x="170.560092"></use>
    <use xlink:href="#GLYPHptmr8r_111" x="175.560171"></use>
    <use xlink:href="#GLYPHptmr8r_108" x="180.560251"></use>
    <use xlink:href="#GLYPHptmr8r_101" x="183.340195"></use>
    <use xlink:href="#GLYPHptmr8r_97" x="187.780205"></use>
    <use xlink:href="#GLYPHptmr8r_110" x="192.220216"></use>
  </g>
  <path d="M1.927551 215.544067L7.877594 215.544067L7.877594 218.244019L1.927551 218.244019Z" style="fill: rgb(39.999390%,39.999390%,39.999390%);stroke: none;"></path>
  <path d="M7.877594 218.244019L8.927551 217.194061L8.927551 214.494110L7.877594 215.544067Z" style="fill: rgb(69.999695%,69.999695%,69.999695%);stroke: none;"></path>
  <path d="M7.877594 215.544067L8.927551 214.494110L2.977509 214.494110L1.927551 215.544067Z" style="fill: rgb(60.000610%,60.000610%,60.000610%);stroke: none;"></path>
  <path d="M1.927551 230.048645L7.877594 230.048645L7.877594 232.748596L1.927551 232.748596Z" style="fill: rgb(39.999390%,39.999390%,39.999390%);stroke: none;"></path>
  <path d="M7.877594 232.748596L8.927551 231.698639L8.927551 228.998688L7.877594 230.048645Z" style="fill: rgb(69.999695%,69.999695%,69.999695%);stroke: none;"></path>
  <path d="M7.877594 230.048645L8.927551 228.998688L2.977509 228.998688L1.927551 230.048645Z" style="fill: rgb(60.000610%,60.000610%,60.000610%);stroke: none;"></path>
  <path d="M1.927551 240.548645L7.877594 240.548645L7.877594 243.248596L1.927551 243.248596Z" style="fill: rgb(39.999390%,39.999390%,39.999390%);stroke: none;"></path>
  <path d="M7.877594 243.248596L8.927551 242.198639L8.927551 239.498688L7.877594 240.548645Z" style="fill: rgb(69.999695%,69.999695%,69.999695%);stroke: none;"></path>
  <path d="M7.877594 240.548645L8.927551 239.498688L2.977509 239.498688L1.927551 240.548645Z" style="fill: rgb(60.000610%,60.000610%,60.000610%);stroke: none;"></path>
  <path d="M225.435730 196.253876L469.899872 196.253876L469.899872 248.517609L225.435730 248.517609Z" style="fill: rgb(69.999695%,69.999695%,69.999695%);stroke: none;"></path>
  <path d="M224.435730 195.253876L468.899872 195.253876L468.899872 247.517609L224.435730 247.517609Z" style="fill: rgb(89.999390%,89.999390%,89.999390%);stroke: none;"></path>
  <path d="M224.435730 195.253876L468.899872 195.253876L468.899872 247.517609L224.435730 247.517609Z" style="stroke:rgb(0.000000%,0.000000%,0.000000%); stroke-width: 0.500000;stroke-linejoin: round;stroke-miterlimit: 10.000000;fill: none;"></path>
  <path d="M224.435730 208.008453L468.899872 208.008453" style="stroke:rgb(0.000000%,0.000000%,0.000000%); stroke-width: 0.500000;stroke-linejoin: round;stroke-miterlimit: 10.000000;fill: none;"></path>
  <path d="M224.435730 222.513031L468.899872 222.513031" style="stroke:rgb(0.000000%,0.000000%,0.000000%); stroke-width: 0.500000;stroke-linejoin: round;stroke-miterlimit: 10.000000;fill: none;"></path>
  <g transform="translate(310.702927 205.008453)" style="fill: rgb(0.000000%,0.000000%,0.000000%);">
    <use xlink:href="#GLYPHptmr8r_73"></use>
    <use xlink:href="#GLYPHptmr8r_122" x="3.330012"></use>
    <use xlink:href="#GLYPHptmr8r_104" x="7.770022"></use>
    <use xlink:href="#GLYPHptmr8r_105" x="12.770102"></use>
    <use xlink:href="#GLYPHptmr8r_107" x="15.550046"></use>
    <use xlink:href="#GLYPHptmr8r_101" x="20.550125"></use>
    <use xlink:href="#GLYPHptmr8r_118" x="24.990136"></use>
    <use xlink:href="#GLYPHptmr8r_105" x="29.990215"></use>
    <use xlink:href="#GLYPHptmr8r_99" x="32.770159"></use>
    <use xlink:href="#GLYPHptmr8r_104" x="37.210170"></use>
    <use xlink:href="#GLYPHptmr8r_78" x="42.210249"></use>
    <use xlink:href="#GLYPHptmr8r_101" x="49.430326"></use>
    <use xlink:href="#GLYPHptmr8r_117" x="53.870337"></use>
    <use xlink:href="#GLYPHptmr8r_114" x="58.870416"></use>
    <use xlink:href="#GLYPHptmr8r_111" x="62.200428"></use>
    <use xlink:href="#GLYPHptmr8r_110" x="67.200507"></use>
  </g>
  <g transform="translate(237.435730 218.513031)" style="fill: rgb(0.000000%,0.000000%,0.000000%);">
    <use xlink:href="#GLYPHptmr8r_116"></use>
    <use xlink:href="#GLYPHptmr8r_121" x="2.779944"></use>
    <use xlink:href="#GLYPHptmr8r_112" x="7.780024"></use>
    <use xlink:href="#GLYPHptmr8r_101" x="12.780103"></use>
    <use xlink:href="#GLYPHptmr8r_58" x="17.220114"></use>
    <use xlink:href="#GLYPHptmr8r_32" x="20.000058"></use>
    <use xlink:href="#GLYPHptmr8r_83" x="22.500097"></use>
    <use xlink:href="#GLYPHptmr8r_116" x="28.060123"></use>
    <use xlink:href="#GLYPHptmr8r_114" x="30.840068"></use>
    <use xlink:href="#GLYPHptmr8r_105" x="34.170079"></use>
    <use xlink:href="#GLYPHptmr8r_110" x="36.950023"></use>
    <use xlink:href="#GLYPHptmr8r_103" x="41.950103"></use>
  </g>
  <g transform="translate(237.435730 233.017609)" style="fill: rgb(0.000000%,0.000000%,0.000000%);">
    <use xlink:href="#GLYPHptmr8r_105"></use>
    <use xlink:href="#GLYPHptmr8r_110" x="2.779944"></use>
    <use xlink:href="#GLYPHptmr8r_105" x="7.780024"></use>
    <use xlink:href="#GLYPHptmr8r_116" x="10.559968"></use>
    <use xlink:href="#GLYPHptmr8r_40" x="13.339912"></use>
    <use xlink:href="#GLYPHptmr8r_118" x="16.669923"></use>
    <use xlink:href="#GLYPHptmr8r_95" x="21.670003"></use>
    <use xlink:href="#GLYPHptmr8r_116" x="26.670082"></use>
    <use xlink:href="#GLYPHptmr8r_58" x="29.450027"></use>
    <use xlink:href="#GLYPHptmr8r_32" x="32.229971"></use>
    <use xlink:href="#GLYPHptmr8r_102" x="34.730010"></use>
    <use xlink:href="#GLYPHptmr8r_108" x="38.060022"></use>
    <use xlink:href="#GLYPHptmr8r_111" x="40.839966"></use>
    <use xlink:href="#GLYPHptmr8r_97" x="45.840046"></use>
    <use xlink:href="#GLYPHptmr8r_116" x="50.280056"></use>
    <use xlink:href="#GLYPHptmr8r_44" x="53.060000"></use>
    <use xlink:href="#GLYPHptmr8r_32" x="55.560040"></use>
    <use xlink:href="#GLYPHptmr8r_118" x="58.060080"></use>
    <use xlink:href="#GLYPHptmr8r_95" x="63.060159"></use>
    <use xlink:href="#GLYPHptmr8r_48" x="68.060239"></use>
    <use xlink:href="#GLYPHptmr8r_58" x="73.060318"></use>
    <use xlink:href="#GLYPHptmr8r_102" x="75.840262"></use>
    <use xlink:href="#GLYPHptmr8r_108" x="79.170274"></use>
    <use xlink:href="#GLYPHptmr8r_111" x="81.950218"></use>
    <use xlink:href="#GLYPHptmr8r_97" x="86.950297"></use>
    <use xlink:href="#GLYPHptmr8r_116" x="91.390308"></use>
    <use xlink:href="#GLYPHptmr8r_32" x="94.170252"></use>
    <use xlink:href="#GLYPHptmr8r_97" x="96.670292"></use>
    <use xlink:href="#GLYPHptmr8r_58" x="101.110302"></use>
    <use xlink:href="#GLYPHptmr8r_32" x="103.890246"></use>
    <use xlink:href="#GLYPHptmr8r_102" x="106.390286"></use>
    <use xlink:href="#GLYPHptmr8r_108" x="109.720298"></use>
    <use xlink:href="#GLYPHptmr8r_111" x="112.500242"></use>
    <use xlink:href="#GLYPHptmr8r_97" x="117.500321"></use>
    <use xlink:href="#GLYPHptmr8r_116" x="121.940332"></use>
    <use xlink:href="#GLYPHptmr8r_44" x="124.720276"></use>
    <use xlink:href="#GLYPHptmr8r_32" x="127.220316"></use>
    <use xlink:href="#GLYPHptmr8r_98" x="129.720355"></use>
    <use xlink:href="#GLYPHptmr8r_58" x="134.720435"></use>
    <use xlink:href="#GLYPHptmr8r_32" x="137.500379"></use>
    <use xlink:href="#GLYPHptmr8r_102" x="140.000419"></use>
    <use xlink:href="#GLYPHptmr8r_108" x="143.330430"></use>
    <use xlink:href="#GLYPHptmr8r_111" x="146.110374"></use>
    <use xlink:href="#GLYPHptmr8r_97" x="151.110454"></use>
    <use xlink:href="#GLYPHptmr8r_116" x="155.550464"></use>
    <use xlink:href="#GLYPHptmr8r_44" x="158.330408"></use>
    <use xlink:href="#GLYPHptmr8r_32" x="160.830448"></use>
    <use xlink:href="#GLYPHptmr8r_99" x="163.330488"></use>
    <use xlink:href="#GLYPHptmr8r_58" x="167.770498"></use>
    <use xlink:href="#GLYPHptmr8r_32" x="170.550442"></use>
    <use xlink:href="#GLYPHptmr8r_102" x="173.050482"></use>
    <use xlink:href="#GLYPHptmr8r_108" x="176.380494"></use>
    <use xlink:href="#GLYPHptmr8r_111" x="179.160438"></use>
    <use xlink:href="#GLYPHptmr8r_97" x="184.160517"></use>
    <use xlink:href="#GLYPHptmr8r_116" x="188.600528"></use>
    <use xlink:href="#GLYPHptmr8r_44" x="191.380472"></use>
    <use xlink:href="#GLYPHptmr8r_32" x="193.880512"></use>
    <use xlink:href="#GLYPHptmr8r_100" x="196.380551"></use>
    <use xlink:href="#GLYPHptmr8r_58" x="201.380631"></use>
    <use xlink:href="#GLYPHptmr8r_32" x="204.160575"></use>
    <use xlink:href="#GLYPHptmr8r_102" x="206.660615"></use>
    <use xlink:href="#GLYPHptmr8r_108" x="209.990626"></use>
    <use xlink:href="#GLYPHptmr8r_111" x="212.770571"></use>
    <use xlink:href="#GLYPHptmr8r_97" x="217.770650"></use>
    <use xlink:href="#GLYPHptmr8r_116" x="222.210661"></use>
    <use xlink:href="#GLYPHptmr8r_41" x="224.990605"></use>
  </g>
  <g transform="translate(237.435730 243.517609)" style="fill: rgb(0.000000%,0.000000%,0.000000%);">
    <use xlink:href="#GLYPHptmr8r_115"></use>
    <use xlink:href="#GLYPHptmr8r_105" x="3.889958"></use>
    <use xlink:href="#GLYPHptmr8r_109" x="6.669902"></use>
    <use xlink:href="#GLYPHptmr8r_117" x="14.449926"></use>
    <use xlink:href="#GLYPHptmr8r_108" x="19.450005"></use>
    <use xlink:href="#GLYPHptmr8r_97" x="22.229949"></use>
    <use xlink:href="#GLYPHptmr8r_116" x="26.669960"></use>
    <use xlink:href="#GLYPHptmr8r_101" x="29.449904"></use>
    <use xlink:href="#GLYPHptmr8r_40" x="33.889914"></use>
    <use xlink:href="#GLYPHptmr8r_115" x="37.219926"></use>
    <use xlink:href="#GLYPHptmr8r_112" x="41.109884"></use>
    <use xlink:href="#GLYPHptmr8r_105" x="46.109964"></use>
    <use xlink:href="#GLYPHptmr8r_107" x="48.889908"></use>
    <use xlink:href="#GLYPHptmr8r_101" x="53.889987"></use>
    <use xlink:href="#GLYPHptmr8r_95" x="58.329998"></use>
    <use xlink:href="#GLYPHptmr8r_116" x="63.330077"></use>
    <use xlink:href="#GLYPHptmr8r_114" x="66.110021"></use>
    <use xlink:href="#GLYPHptmr8r_97" x="69.440033"></use>
    <use xlink:href="#GLYPHptmr8r_105" x="73.880043"></use>
    <use xlink:href="#GLYPHptmr8r_110" x="76.659988"></use>
    <use xlink:href="#GLYPHptmr8r_58" x="81.660067"></use>
    <use xlink:href="#GLYPHptmr8r_32" x="84.440011"></use>
    <use xlink:href="#GLYPHptmr8r_76" x="86.940051"></use>
    <use xlink:href="#GLYPHptmr8r_105" x="93.050129"></use>
    <use xlink:href="#GLYPHptmr8r_115" x="95.830073"></use>
    <use xlink:href="#GLYPHptmr8r_116" x="99.720031"></use>
    <use xlink:href="#GLYPHptmr8r_44" x="102.499976"></use>
    <use xlink:href="#GLYPHptmr8r_32" x="105.000015"></use>
    <use xlink:href="#GLYPHptmr8r_119" x="107.500055"></use>
    <use xlink:href="#GLYPHptmr8r_101" x="114.720132"></use>
    <use xlink:href="#GLYPHptmr8r_105" x="119.160143"></use>
    <use xlink:href="#GLYPHptmr8r_103" x="121.940087"></use>
    <use xlink:href="#GLYPHptmr8r_104" x="126.940166"></use>
    <use xlink:href="#GLYPHptmr8r_116" x="131.940246"></use>
    <use xlink:href="#GLYPHptmr8r_115" x="134.720190"></use>
    <use xlink:href="#GLYPHptmr8r_58" x="138.610148"></use>
    <use xlink:href="#GLYPHptmr8r_32" x="141.390092"></use>
    <use xlink:href="#GLYPHptmr8r_76" x="143.890132"></use>
    <use xlink:href="#GLYPHptmr8r_105" x="150.000210"></use>
    <use xlink:href="#GLYPHptmr8r_115" x="152.780154"></use>
    <use xlink:href="#GLYPHptmr8r_116" x="156.670112"></use>
    <use xlink:href="#GLYPHptmr8r_41" x="159.450056"></use>
    <use xlink:href="#GLYPHptmr8r_58" x="162.780068"></use>
    <use xlink:href="#GLYPHptmr8r_98" x="165.560012"></use>
    <use xlink:href="#GLYPHptmr8r_111" x="170.560092"></use>
    <use xlink:href="#GLYPHptmr8r_111" x="175.560171"></use>
    <use xlink:href="#GLYPHptmr8r_108" x="180.560251"></use>
    <use xlink:href="#GLYPHptmr8r_101" x="183.340195"></use>
    <use xlink:href="#GLYPHptmr8r_97" x="187.780205"></use>
    <use xlink:href="#GLYPHptmr8r_110" x="192.220216"></use>
  </g>
  <path d="M226.435730 215.813080L232.385773 215.813080L232.385773 218.513031L226.435730 218.513031Z" style="fill: rgb(39.999390%,39.999390%,39.999390%);stroke: none;"></path>
  <path d="M232.385773 218.513031L233.435730 217.463074L233.435730 214.763123L232.385773 215.813080Z" style="fill: rgb(69.999695%,69.999695%,69.999695%);stroke: none;"></path>
  <path d="M232.385773 215.813080L233.435730 214.763123L227.485687 214.763123L226.435730 215.813080Z" style="fill: rgb(60.000610%,60.000610%,60.000610%);stroke: none;"></path>
  <path d="M226.435730 230.317657L232.385773 230.317657L232.385773 233.017609L226.435730 233.017609Z" style="fill: rgb(39.999390%,39.999390%,39.999390%);stroke: none;"></path>
  <path d="M232.385773 233.017609L233.435730 231.967651L233.435730 229.267700L232.385773 230.317657Z" style="fill: rgb(69.999695%,69.999695%,69.999695%);stroke: none;"></path>
  <path d="M232.385773 230.317657L233.435730 229.267700L227.485687 229.267700L226.435730 230.317657Z" style="fill: rgb(60.000610%,60.000610%,60.000610%);stroke: none;"></path>
  <path d="M226.435730 240.817657L232.385773 240.817657L232.385773 243.517609L226.435730 243.517609Z" style="fill: rgb(39.999390%,39.999390%,39.999390%);stroke: none;"></path>
  <path d="M232.385773 243.517609L233.435730 242.467651L233.435730 239.767700L232.385773 240.817657Z" style="fill: rgb(69.999695%,69.999695%,69.999695%);stroke: none;"></path>
  <path d="M232.385773 240.817657L233.435730 239.767700L227.485687 239.767700L226.435730 240.817657Z" style="fill: rgb(60.000610%,60.000610%,60.000610%);stroke: none;"></path>
  <path d="M106.667801 195.253876L178.207901 160.691513" style="stroke:rgb(0.000000%,0.000000%,0.000000%); stroke-width: 0.500000;stroke-linejoin: round;stroke-miterlimit: 10.000000;fill: none;"></path>
  <path d="M178.207901 160.691513L176.032837 156.189407L189.463165 155.253876L180.382965 165.193619Z" style="fill: rgb(100.000000%,100.000000%,100.000000%);stroke: none;"></path>
  <path d="M178.207901 160.691513L176.032837 156.189407" style="stroke:rgb(0.000000%,0.000000%,0.000000%); stroke-width: 0.500000;stroke-linejoin: round;stroke-miterlimit: 10.000000;fill: none;"></path>
  <path d="M178.207901 160.691513L180.382965 165.193619" style="stroke:rgb(0.000000%,0.000000%,0.000000%); stroke-width: 0.500000;stroke-linejoin: round;stroke-miterlimit: 10.000000;fill: none;"></path>
  <path d="M189.463165 155.253876L176.032837 156.189407" style="stroke:rgb(0.000000%,0.000000%,0.000000%); stroke-width: 0.500000;stroke-linejoin: round;stroke-miterlimit: 10.000000;fill: none;"></path>
  <path d="M189.463165 155.253876L180.382965 165.193619" style="stroke:rgb(0.000000%,0.000000%,0.000000%); stroke-width: 0.500000;stroke-linejoin: round;stroke-miterlimit: 10.000000;fill: none;"></path>
  <path d="M346.667801 195.253876L275.127701 160.691513" style="stroke:rgb(0.000000%,0.000000%,0.000000%); stroke-width: 0.500000;stroke-linejoin: round;stroke-miterlimit: 10.000000;fill: none;"></path>
  <path d="M275.127701 160.691513L272.952637 165.193619L263.872437 155.253876L277.302765 156.189407Z" style="fill: rgb(100.000000%,100.000000%,100.000000%);stroke: none;"></path>
  <path d="M275.127701 160.691513L272.952637 165.193619" style="stroke:rgb(0.000000%,0.000000%,0.000000%); stroke-width: 0.500000;stroke-linejoin: round;stroke-miterlimit: 10.000000;fill: none;"></path>
  <path d="M275.127701 160.691513L277.302765 156.189407" style="stroke:rgb(0.000000%,0.000000%,0.000000%); stroke-width: 0.500000;stroke-linejoin: round;stroke-miterlimit: 10.000000;fill: none;"></path>
  <path d="M263.872437 155.253876L272.952637 165.193619" style="stroke:rgb(0.000000%,0.000000%,0.000000%); stroke-width: 0.500000;stroke-linejoin: round;stroke-miterlimit: 10.000000;fill: none;"></path>
  <path d="M263.872437 155.253876L277.302765 156.189407" style="stroke:rgb(0.000000%,0.000000%,0.000000%); stroke-width: 0.500000;stroke-linejoin: round;stroke-miterlimit: 10.000000;fill: none;"></path>
  <path d="M226.667801 72.994720L226.667801 100.494705" style="stroke:rgb(0.000000%,0.000000%,0.000000%); stroke-width: 0.500000;stroke-linejoin: round;stroke-miterlimit: 10.000000;fill: none;"></path>
  <path d="M226.667801 100.494705L226.667801 112.994720" style="stroke:rgb(0.000000%,0.000000%,0.000000%); stroke-width: 0.500000;stroke-linejoin: round;stroke-miterlimit: 10.000000;fill: none;"></path>
  <path d="M226.667801 112.994720L231.667801 100.494705" style="stroke:rgb(0.000000%,0.000000%,0.000000%); stroke-width: 0.500000;stroke-linejoin: round;stroke-miterlimit: 10.000000;fill: none;"></path>
  <path d="M226.667801 112.994720L221.667801 100.494705" style="stroke:rgb(0.000000%,0.000000%,0.000000%); stroke-width: 0.500000;stroke-linejoin: round;stroke-miterlimit: 10.000000;fill: none;"></path>
</svg>
